# xmcd
# 
# Track frame offsets:
#     150
#     26647
#     48192
#     75720
#     95915
#     119200
#     139935
#     164692
#     183870
#     205390
# 
# Disc length: 3009
# 
# Revision: 7
# Processed by: cddbd v1.5.2PL0 Copyright (c) Steve Scherf et al.
# Submitted via: fre:ac v1.0.31
# 
DISCID=930bbf0a
DTITLE=Lee Ritenour - Wes Bound
DYEAR=1993
DGENRE=Jazz
TTITLE0=Wes Bound
TTITLE1=Boss City
TTITLE2=4 On 6
TTITLE3=A Little Bumpin'
TTITLE4=Waiting In Vain
TTITLE5=Goin' On To Detroit
TTITLE6=A New Day
TTITLE7=Ocean Ave
TTITLE8=Road Song
TTITLE9=West Coast Blues
EXTD=YEAR: 1993
EXTT0=
EXTT1=
EXTT2=
EXTT3=
EXTT4=
EXTT5=
EXTT6=
EXTT7=
EXTT8=
EXTT9=
PLAYORDER=
